<?xml version="1.0" encoding="UTF-8" standalone="no"?><svg xmlns="http://www.w3.org/2000/svg" width="132.29167mm" height="80.202866mm" viewBox="0 0 132.29167 80.202866" version="1.1" id="svg94"><defs id="defs88"/><g id="layer1" transform="translate(-9.0826126e-7,-216.79713)"><text xml:space="preserve" style="font-style:normal;font-variant:normal;font-weight:normal;font-stretch:normal;font-size:10.58333302px;line-height:1.25;font-family:'Bravura Text';-inkscape-font-specification:'Bravura Text, Normal';font-variant-ligatures:normal;font-variant-caps:normal;font-variant-numeric:normal;font-feature-settings:normal;text-align:start;letter-spacing:0px;word-spacing:0px;writing-mode:lr-tb;text-anchor:start;fill:#000000;fill-opacity:1;stroke:none;stroke-width:0.26458332" x="16.630953" y="117.83928" id="text98"><tspan id="tspan100" x="16.630953" y="127.62886"/></text><text xml:space="preserve" style="font-style:normal;font-variant:normal;font-weight:normal;font-stretch:normal;font-size:50.79999924px;line-height:1.25;font-family:'Bravura Text';-inkscape-font-specification:'Bravura Text';letter-spacing:0px;word-spacing:0px;fill:#000000;fill-opacity:1;stroke:none;stroke-width:0.26458332" x="16.630953" y="111.03571" id="text104"><tspan id="tspan102" x="16.630953" y="158.02571" style="font-style:normal;font-variant:normal;font-weight:normal;font-stretch:normal;font-size:50.79999924px;font-family:'Bravura Text';-inkscape-font-specification:'Bravura Text';stroke-width:0.26458332"/></text><g aria-label="" style="font-style:normal;font-variant:normal;font-weight:normal;font-stretch:normal;font-size:120.26547241px;line-height:1.25;font-family:'Bravura Text';-inkscape-font-specification:'Bravura Text, Normal';font-variant-ligatures:normal;font-variant-caps:normal;font-variant-numeric:normal;font-feature-settings:normal;text-align:start;letter-spacing:0px;word-spacing:0px;writing-mode:lr-tb;text-anchor:start;fill:#000000;fill-opacity:1;stroke:none;stroke-width:0.62638098" id="text108" transform="matrix(0.81825998,0,0,0.81825998,1.6506742e-7,69.230123)"><path d="m 29.104245,253.70439 c -1.924247,-1.56345 -4.570088,-2.52558 -7.69699,-2.52558 -11.9062818,0 -21.40725409173874,8.77938 -21.40725409173874,18.16009 0,5.65248 4.57008799173874,9.01991 10.46309609173874,9.01991 9.621238,0 21.407254,-9.01991 21.52752,-18.03982 v -79.97654 h -2.886372 z" id="path4294"/><path d="M 64.428469,180.34245 H 31.47573 V 192.369 h 32.952739 z" id="path4296"/><path d="M 63.89103,180.34245 V 192.369 h 30.066368 v 61.21512 c -1.924247,-1.56345 -4.570088,-2.52557 -7.69699,-2.52557 -11.906282,0 -21.407254,8.77938 -21.407254,18.16008 0,5.65248 4.570088,9.01991 10.463096,9.01991 9.621238,0 21.407254,-8.89964 21.52752,-18.03982 v -79.85627 z" id="path4298"/><path d="M 129.25908,180.34245 H 96.306336 V 192.369 h 32.952744 z" id="path4300"/><path d="M 128.72163,180.34245 V 192.369 H 158.788 v 61.21512 c -1.92424,-1.56345 -4.57009,-2.52557 -7.69699,-2.52557 -11.90628,0 -21.40725,8.77938 -21.40725,18.16008 0,5.65248 4.57009,9.01991 10.46309,9.01991 9.62124,0 21.40726,-8.89964 21.52752,-18.03982 v -79.85627 z" id="path4302"/></g></g></svg>