<?xml version="1.0" encoding="UTF-8" standalone="no"?><svg xmlns="http://www.w3.org/2000/svg" width="500" height="431.0892" viewBox="0 0 132.29165 114.05901" version="1.1" id="svg8"><defs id="defs2"/><g id="layer1" transform="translate(8.0415949e-8,-182.94093)"><text xml:space="preserve" style="font-style:normal;font-variant:normal;font-weight:normal;font-stretch:normal;font-size:10.58333302px;line-height:1.25;font-family:'Bravura Text';-inkscape-font-specification:'Bravura Text, Normal';font-variant-ligatures:normal;font-variant-caps:normal;font-variant-numeric:normal;font-feature-settings:normal;text-align:start;letter-spacing:0px;word-spacing:0px;writing-mode:lr-tb;text-anchor:start;fill:#000000;fill-opacity:1;stroke:none;stroke-width:0.26458332" x="36.777084" y="111.2625" id="text12"><tspan id="tspan14" x="36.777084" y="121.05208"/></text><text xml:space="preserve" style="font-style:normal;font-variant:normal;font-weight:normal;font-stretch:normal;font-size:10.58333302px;line-height:1.25;font-family:'Bravura Text';-inkscape-font-specification:'Bravura Text, Normal';font-variant-ligatures:normal;font-variant-caps:normal;font-variant-numeric:normal;font-feature-settings:normal;text-align:start;letter-spacing:0px;word-spacing:0px;writing-mode:lr-tb;text-anchor:start;fill:#000000;fill-opacity:1;stroke:none;stroke-width:0.26458332" x="66.410416" y="130.04791" id="text18"><tspan id="tspan16" x="66.410416" y="139.83749" style="stroke-width:0.26458332"/></text><g aria-label="" style="font-style:normal;font-variant:normal;font-weight:normal;font-stretch:normal;font-size:360.46774292px;line-height:1.25;font-family:'Bravura Text';-inkscape-font-specification:'Bravura Text, Normal';font-variant-ligatures:normal;font-variant-caps:normal;font-variant-numeric:normal;font-feature-settings:normal;text-align:start;letter-spacing:0px;word-spacing:0px;writing-mode:lr-tb;text-anchor:start;fill:#000000;fill-opacity:1;stroke:none;stroke-width:9.011693" id="text22"><g aria-label="" style="font-style:normal;font-variant:normal;font-weight:normal;font-stretch:normal;font-size:10.58333302px;line-height:1.25;font-family:'Bravura Text';-inkscape-font-specification:'Bravura Text, Normal';font-variant-ligatures:normal;font-variant-caps:normal;font-variant-numeric:normal;font-feature-settings:normal;text-align:start;letter-spacing:0px;word-spacing:0px;writing-mode:lr-tb;text-anchor:start;fill:#000000;fill-opacity:1;stroke:none;stroke-width:2.38434362" id="text4243" transform="matrix(13.224234,0,0,13.22359,-244.9363,-2677.3401)"><path id="path4251" style="stroke-width:2.38434362" d="m 28.525506,223.61448 c 0,-0.24341 -0.1905,-0.42333 -0.423333,-0.42333 -0.232833,0 -0.423333,0.17992 -0.423333,0.42333 0,0.23284 0.1905,0.42334 0.423333,0.42334 0.232833,0 0.423333,-0.1905 0.423333,-0.42334 z m -4.381334,-7.31308 v 1.05833 h 2.645833 v 5.38692 c -0.169333,-0.13758 -0.402167,-0.22225 -0.677333,-0.22225 -1.04775,0 -1.883834,0.77258 -1.883834,1.59808 0,0.49742 0.402167,0.79375 0.92075,0.79375 0.846667,0 1.883834,-0.78316 1.894417,-1.5875 v -7.02733 z m 0.04729,1.57692 h -2.899833 v 1.05833 h 2.899833 z m 0,-1.57692 h -2.899833 v 1.05833 h 2.899833 z m -3.108523,6.45583 c -0.169334,-0.13758 -0.402167,-0.22225 -0.677334,-0.22225 -1.047749,0 -1.883833,0.77259 -1.883833,1.59809 0,0.49741 0.402167,0.79375 0.92075,0.79375 0.846667,0 1.883833,-0.79375 1.894417,-1.5875 v -7.03792 h -0.254 z"/></g></g></g></svg>