<?xml version="1.0" encoding="UTF-8" standalone="no"?><svg xmlns="http://www.w3.org/2000/svg" width="110.79427mm" height="132.29166mm" viewBox="0 0 110.79427 132.29166" version="1.1" id="svg94"><defs id="defs88"/><g id="layer1" transform="translate(0,-164.70835)"><text xml:space="preserve" style="font-style:normal;font-variant:normal;font-weight:normal;font-stretch:normal;font-size:10.58333302px;line-height:1.25;font-family:'Bravura Text';-inkscape-font-specification:'Bravura Text, Normal';font-variant-ligatures:normal;font-variant-caps:normal;font-variant-numeric:normal;font-feature-settings:normal;text-align:start;letter-spacing:0px;word-spacing:0px;writing-mode:lr-tb;text-anchor:start;fill:#000000;fill-opacity:1;stroke:none;stroke-width:0.26458332" x="16.630953" y="117.83928" id="text98"><tspan id="tspan100" x="16.630953" y="127.62886"/></text><text xml:space="preserve" style="font-style:normal;font-variant:normal;font-weight:normal;font-stretch:normal;font-size:50.79999924px;line-height:1.25;font-family:'Bravura Text';-inkscape-font-specification:'Bravura Text';letter-spacing:0px;word-spacing:0px;fill:#000000;fill-opacity:1;stroke:none;stroke-width:0.26458332" x="16.630953" y="111.03571" id="text104"><tspan id="tspan102" x="16.630953" y="158.02571" style="font-style:normal;font-variant:normal;font-weight:normal;font-stretch:normal;font-size:50.79999924px;font-family:'Bravura Text';-inkscape-font-specification:'Bravura Text';stroke-width:0.26458332"/></text><g aria-label="" style="font-style:normal;font-variant:normal;font-weight:normal;font-stretch:normal;font-size:330.72915649px;line-height:1.25;font-family:'Bravura Text';-inkscape-font-specification:'Bravura Text, Normal';font-variant-ligatures:normal;font-variant-caps:normal;font-variant-numeric:normal;font-feature-settings:normal;text-align:start;letter-spacing:0px;word-spacing:0px;writing-mode:lr-tb;text-anchor:start;fill:#000000;fill-opacity:1;stroke:none;stroke-width:1.72254312" id="text108"><path d="m 60.192706,164.70835 c -7.937499,0 -17.197916,2.3151 -24.143228,5.29166 C 12.567708,180.25262 0,208.69532 0,233.83074 c 0,2.3151 0,4.63021 0.33072916,7.27604 1.32291664,14.22135 8.26822894,27.78125 16.86718684,38.36458 9.921875,11.90625 24.473958,17.52865 40.348957,17.52865 46.302087,0 53.247397,-42.0026 53.247397,-49.60938 0,-5.95312 -2.97656,-5.95312 -3.96875,-5.95312 -1.98438,0 -3.96875,0.33073 -3.96875,4.96094 0,34.0651 -29.104168,42.0026 -37.372397,42.0026 -21.497395,0 -33.072916,-20.83594 -33.072916,-64.49219 0,-43.65624 20.174479,-52.91666 34.395833,-52.91666 13.890624,0 19.51302,6.61458 19.51302,9.26042 0,2.3151 -0.992188,5.62239 -4.960938,5.62239 -10.583333,0 -16.536457,11.57552 -16.536457,19.51302 0,15.21354 12.898437,19.84375 20.505207,19.84375 0,0 19.843748,-0.66146 19.843748,-22.48958 0,-34.72656 -39.687497,-38.03385 -44.979164,-38.03385 z" style="stroke-width:1.72254312" id="path301"/></g></g></svg>