<?xml version="1.0" encoding="UTF-8" standalone="no"?><svg xmlns="http://www.w3.org/2000/svg" width="499.99997" height="297.00272" viewBox="0 0 132.29165 78.581971" version="1.1" id="svg8"><defs id="defs2"/><g id="layer1" transform="translate(0,-218.418)"><text xml:space="preserve" style="font-style:normal;font-variant:normal;font-weight:normal;font-stretch:normal;font-size:10.58333302px;line-height:1.25;font-family:'Bravura Text';-inkscape-font-specification:'Bravura Text, Normal';font-variant-ligatures:normal;font-variant-caps:normal;font-variant-numeric:normal;font-feature-settings:normal;text-align:start;letter-spacing:0px;word-spacing:0px;writing-mode:lr-tb;text-anchor:start;fill:#000000;fill-opacity:1;stroke:none;stroke-width:0.26458332" x="36.777084" y="111.2625" id="text12"><tspan id="tspan14" x="36.777084" y="121.05208"/></text><text xml:space="preserve" style="font-style:normal;font-variant:normal;font-weight:normal;font-stretch:normal;font-size:10.58333302px;line-height:1.25;font-family:'Bravura Text';-inkscape-font-specification:'Bravura Text, Normal';font-variant-ligatures:normal;font-variant-caps:normal;font-variant-numeric:normal;font-feature-settings:normal;text-align:start;letter-spacing:0px;word-spacing:0px;writing-mode:lr-tb;text-anchor:start;fill:#000000;fill-opacity:1;stroke:none;stroke-width:0.26458332" x="66.410416" y="130.04791" id="text18"><tspan id="tspan16" x="66.410416" y="139.83749" style="stroke-width:0.26458332"/></text><g aria-label="" style="font-style:normal;font-variant:normal;font-weight:normal;font-stretch:normal;font-size:360.46774292px;line-height:1.25;font-family:'Bravura Text';-inkscape-font-specification:'Bravura Text, Normal';font-variant-ligatures:normal;font-variant-caps:normal;font-variant-numeric:normal;font-feature-settings:normal;text-align:start;letter-spacing:0px;word-spacing:0px;writing-mode:lr-tb;text-anchor:start;fill:#000000;fill-opacity:1;stroke:none;stroke-width:9.011693" id="text22"><path d="M 67.767936,218.418 C 25.953677,218.418 0,235.72045 0,257.34851 c 0,20.90713 18.023387,39.65146 64.523726,39.65146 51.546884,0 67.767934,-18.02339 67.767934,-39.65146 0,-22.349 -35.325837,-38.93051 -64.523724,-38.93051 z m -32.802565,19.46526 c 3.24421,-10.81404 14.779178,-12.25591 24.872274,-12.25591 21.267597,0 38.570049,23.06994 38.570049,41.81426 0,2.16281 -0.360468,4.32561 -0.720936,5.76749 -1.441871,7.93029 -6.127951,13.3373 -13.697774,15.50011 -3.24421,0.72093 -6.488419,1.0814 -9.732629,1.0814 -2.883742,0 -5.407016,-0.36047 -8.290758,-1.0814 -5.046548,-1.80234 -10.453565,-4.68608 -14.779178,-8.29076 -2.162806,-2.16281 -4.325612,-4.32561 -6.488419,-7.20935 -6.127952,-7.20936 -10.814032,-17.66292 -10.814032,-27.39555 0,-2.88375 0,-5.40702 1.081403,-7.93029 z" style="stroke-width:9.011693" id="path24"/></g></g></svg>